<?xml version="1.0" encoding="UTF-8"?><svg id="logosandtypes_com" xmlns="http://www.w3.org/2000/svg" viewBox="0 0 150 150"><defs><style>.cls-1{fill:none;}.cls-2{fill:#0a4ab8;}</style></defs><path class="cls-1" d="M0,0H150V150H0V0Z"/><path class="cls-2" d="M111.54,46.43c0-13.16,0-26.32,0-39.48,0-1.4,.47-2.57,1.46-3.53,1.42-1.39,3.66-1.38,5.39-.58,2.06,.96,2.78,2.97,2.65,5.11-.3,27.23,.62,54.52-.39,81.71-.2,2.17-.66,4.29-1.23,6.39-4.48,17.24-19.27,31.39-36.94,34.31-24,4.2-47.79-12.37-52.56-36.18-1.92-12.02-.51-24.36-.92-36.49-.16-4.37,1.19-8.74,3.81-12.24,7.54-10.35,24.26-10.42,31.91-.14,2.68,3.49,4.26,7.85,4.21,12.27,0,8.27,0,16.55,0,24.82-.06,3.01,2.06,5.76,5.04,6.26,4,.86,7.52-2.69,7.28-6.64,.01-11.94,.01-23.88,0-35.82-.17-3.74,4.17-6.22,7.29-4.16,1.92,1.11,2.34,3.25,2.22,5.32,0,11.49,0,22.99,0,34.48,.16,7.89-5.97,15.46-13.94,16.24-8.99,1.21-17.61-6.62-17.35-15.68,0-8.07,0-16.14,0-24.21,.08-2.59-.55-5.2-2.18-7.26-3.05-4.16-9.16-5.37-13.61-2.8-3.26,1.77-5.17,5.01-5.19,8.72,0,9.29-.01,18.58,0,27.88,.4,33.53,41.85,49.47,63.91,23.72,4.56-5.27,7.6-11.84,8.67-18.73,1.2-14.36,.18-28.86,.51-43.27h0Z"/><path class="cls-2" d="M98.4,24.16c3.06-1.52,7.01,.88,6.78,4.36,0,18.66,0,37.31,0,55.97,0,2.92-.49,5.77-1.37,8.55-5.67,18.93-29.19,27.47-45.54,16.24-8.63-5.79-13.88-16.02-13.8-26.38,0-8.38,0-16.77,0-25.15,0-1.39,.44-2.61,1.44-3.6,2.67-2.8,7.97-.93,8.06,3.01,.06,8.73,0,17.47,.02,26.21-.06,8.58,5.39,16.94,13.42,20.08,9.63,3.99,21.61-.72,26.09-10.09,.83-1.7,1.45-3.47,1.81-5.33,1.03-19.78,.05-39.72,.38-59.54,0-1.92,.93-3.53,2.73-4.32h.03s-.04,0-.04,0Z"/><path class="cls-2" d="M98.4,24.16h.04s-.03,0-.04,0Z"/></svg>